<svg xmlns="http://www.w3.org/2000/svg" width="72" height="72" fill="none" viewBox="0 0 72 72">
    <path fill="url(#prefix__paint0_linear)" d="M58.43 62.71l-2.688-8.067c-.939-2.816-3.336-4.895-6.258-5.426l-7.76-1.413v-.601c1.35-.784 2.525-1.833 3.461-3.074h2.345c1.92 0 3.484-1.563 3.484-3.484V26.71c0-8.324-6.773-15.097-15.097-15.097S20.82 18.386 20.82 26.71v8.129c0 2.239 1.592 4.112 3.704 4.549.651 3.337 2.737 6.161 5.586 7.815v.601l-7.761 1.413c-2.921.532-5.32 2.61-6.258 5.426l-.464 1.395-3.955-3.955c-.453-.453-.453-1.19 0-1.643l4.587-4.586-8.61-8.61-5.184 5.184C.93 43.963.085 46.005.085 48.176c0 2.172.845 4.212 2.38 5.747L18.16 69.618C19.695 71.153 21.736 72 23.908 72s4.212-.847 5.711-2.347l5.657-5.183-1.764-1.76h24.919zm-9.739-22.065c0 .641-.521 1.161-1.161 1.161h-.977c.337-.767.593-1.577.757-2.418.497-.104.955-.301 1.381-.55v1.807zM47.53 36.84v-4c.69.403 1.161 1.144 1.161 2 0 .856-.47 1.596-1.161 2zm-23.226 0c-.69-.404-1.161-1.144-1.161-2 0-.856.47-1.597 1.161-2v4zm0-7.807v1.326c-.413.108-.801.271-1.161.481v-4.13c0-7.043 5.73-12.774 12.774-12.774 7.043 0 12.774 5.731 12.774 12.775v4.13c-.36-.211-.748-.375-1.161-.482v-1.326h-1.161c-3.434 0-6.663-1.337-9.092-3.766l-1.36-1.36-1.36 1.36c-2.43 2.429-5.658 3.766-9.092 3.766h-1.16zm2.323 8.13V31.31c3.487-.263 6.739-1.702 9.29-4.128 2.551 2.426 5.803 3.866 9.29 4.128v5.85c0 1.694-.462 3.277-1.256 4.645h-8.034v2.323h6.125c-1.638 1.441-3.778 2.323-6.125 2.323-5.123 0-9.29-4.168-9.29-9.29zM39.4 48.238v.054l-3.484 3.484-3.484-3.484v-.054c1.101.346 2.27.535 3.484.535s2.383-.19 3.484-.535zm-21.108 7.138c.67-2.011 2.383-3.496 4.47-3.877l8.117-1.475 5.037 5.036 5.035-5.035 8.117 1.475c2.087.38 3.8 1.865 4.47 3.878l1.67 5.008H31.19l-4.523-4.523-5.026 4.546c-.438.44-1.203.44-1.642 0l-2.536-2.536.831-2.497zM7.648 40.527l5.325 5.327-1.26 1.26-5.326-5.325 1.26-1.261zM28.01 67.979c-1.096 1.094-2.555 1.7-4.105 1.7-1.55 0-3.01-.606-4.107-1.702L4.105 52.282c-1.097-1.096-1.7-2.554-1.7-4.105 0-1.551.603-3.01 1.7-4.106l.638-.639 5.326 5.326-.042.042c-1.357 1.358-1.357 3.568 0 4.927l8.328 8.328c.658.657 1.533 1.02 2.464 1.02s1.806-.362 2.421-.98l.088-.077 5.35 5.35-.667.61zm2.38-2.183l-5.338-5.338 1.534-1.387 5.33 5.33-1.525 1.395z"/>
    <path fill="url(#prefix__paint1_linear)" d="M68.433 0H52.175c-1.92 0-3.484 1.563-3.484 3.484v9.29c0 1.921 1.563 3.484 3.484 3.484h3.102l-1.2 7.004 11.206-7.004h3.15c1.92 0 3.484-1.563 3.484-3.484v-9.29c0-1.92-1.563-3.484-3.484-3.484zm1.161 12.774c0 .64-.521 1.162-1.16 1.162h-3.818l-7.375 4.609.79-4.61h-5.856c-.64 0-1.161-.52-1.161-1.16V3.483c0-.64.521-1.161 1.161-1.161h16.258c.64 0 1.161.521 1.161 1.16v9.291z"/>
    <path fill="url(#prefix__paint2_linear)" d="M67.272 4.645H53.336v2.323h13.936V4.645z"/>
    <path fill="url(#prefix__paint3_linear)" d="M62.627 9.29h-9.29v2.323h9.29V9.29z"/>
    <path fill="url(#prefix__paint4_linear)" d="M67.272 9.29h-2.323v2.323h2.323V9.29z"/>
    <path fill="url(#prefix__paint5_linear)" d="M35.917 3.484C20.743 3.484 7.673 13.98 4.275 28.62l-2.2-3.669-1.992 1.195 4.082 6.802 6.802-4.082-1.195-1.991-3.147 1.888C9.915 15.37 21.959 5.806 35.917 5.806c3.05 0 6.06.453 8.947 1.348l.687-2.218c-3.109-.964-6.35-1.452-9.634-1.452z"/>
    <path fill="url(#prefix__paint6_linear)" d="M71.353 25.713l-6.802-4.082-4.08 6.803 1.99 1.195 2.033-3.387c1.07 3.13 1.617 6.403 1.617 9.758 0 6.906-2.393 13.658-6.735 19.01l1.804 1.464c4.677-5.765 7.253-13.037 7.253-20.474 0-3.552-.572-7.021-1.688-10.343l3.413 2.048 1.195-1.992z"/>
    <defs>
        <linearGradient id="prefix__paint0_linear" x1=".084" x2="62.103" y1="11.613" y2="15.655" gradientUnits="userSpaceOnUse">
            <stop stop-color="#FF3C08"/>
            <stop offset="1" stop-color="#6A11CB"/>
        </linearGradient>
        <linearGradient id="prefix__paint1_linear" x1="48.691" x2="73.372" y1="0" y2="1.662" gradientUnits="userSpaceOnUse">
            <stop stop-color="#FF3C08"/>
            <stop offset="1" stop-color="#6A11CB"/>
        </linearGradient>
        <linearGradient id="prefix__paint2_linear" x1="53.336" x2="66.118" y1="4.645" y2="9.818" gradientUnits="userSpaceOnUse">
            <stop stop-color="#FF3C08"/>
            <stop offset="1" stop-color="#6A11CB"/>
        </linearGradient>
        <linearGradient id="prefix__paint3_linear" x1="53.336" x2="62.58" y1="9.29" y2="11.784" gradientUnits="userSpaceOnUse">
            <stop stop-color="#FF3C08"/>
            <stop offset="1" stop-color="#6A11CB"/>
        </linearGradient>
        <linearGradient id="prefix__paint4_linear" x1="64.949" x2="67.417" y1="9.29" y2="9.457" gradientUnits="userSpaceOnUse">
            <stop stop-color="#FF3C08"/>
            <stop offset="1" stop-color="#6A11CB"/>
        </linearGradient>
        <linearGradient id="prefix__paint5_linear" x1=".083" x2="48.098" y1="3.484" y2="8.482" gradientUnits="userSpaceOnUse">
            <stop stop-color="#FF3C08"/>
            <stop offset="1" stop-color="#6A11CB"/>
        </linearGradient>
        <linearGradient id="prefix__paint6_linear" x1="59.376" x2="72.154" y1="21.631" y2="21.928" gradientUnits="userSpaceOnUse">
            <stop stop-color="#FF3C08"/>
            <stop offset="1" stop-color="#6A11CB"/>
        </linearGradient>
    </defs>
</svg>
