<svg xmlns="http://www.w3.org/2000/svg" width="156" height="45" fill="none" viewBox="0 0 156 45">
    <path fill="#DF146E" d="M0 12.296c.297.027.597.08.917.08.301 0 .575-.053.917-.08v9.816c.964-1.647 2.18-2.733 3.967-2.733 3.23 0 4.63 3.206 4.63 6.149 0 3.527-1.882 6.898-5.181 6.898-1.879 0-2.842-1.163-3.257-1.885-.549.477-1.032 1.062-1.559 1.59H0V12.296zm1.786 14.426c0 2.863 1.217 4.855 3.208 4.855 2.595 0 3.419-3.472 3.419-5.942 0-2.862-.94-5.118-3.185-5.145-2.613-.025-3.442 3.078-3.442 6.232z"/>
    <path fill="#221F1F" d="M18.866 18.645l-1.949 2.504c1.832 2.68 3.733 5.299 5.572 8.008l1.852 2.909v.147c-.456-.028-.871-.086-1.262-.086-.433 0-.867.058-1.28.086-.505-.932-1.012-1.803-1.584-2.65l-5.001-7.422c-.112-.118-.387-.204-.387-.09v10.16c-.366-.027-.685-.085-1.007-.085-.344 0-.688.058-1.009.086V12.296c.32.029.665.09 1.009.09.321 0 .641-.061 1.007-.09v8.998c.025.172.344.058.573-.173.417-.408.895-1.022 1.215-1.426l5.641-7.4c.296.029.592.09.919.09.273 0 .569-.061.891-.09l-5.2 6.35zM34.04 29.983c0 1.035-.07 1.569 1.285 1.223v.582c-.163.08-.437.21-.687.265-1.193.24-2.182.029-2.364-1.537l-.204.239c-.962 1.114-2.015 1.67-3.397 1.67-1.622 0-3.043-1.272-3.043-3.238 0-3.021 2.08-3.421 4.239-3.818 1.813-.347 2.427-.501 2.427-1.775 0-1.96-.961-3.104-2.681-3.104-1.671 0-2.564 1.248-2.73 1.832h-.25v-1.487c1.1-.871 2.34-1.456 3.69-1.456 2.41 0 3.716 1.456 3.716 4.455v6.149zm-1.835-4.375l-.804.187c-1.555.342-3.898.61-3.898 3.023 0 1.668.855 2.493 2.249 2.493.618 0 1.398-.502 1.83-1.007.167-.186.624-.64.624-.824v-3.872h-.001zM38.123 29.638c.547 1.039 1.558 1.965 2.63 1.965 1.126 0 2.25-1.011 2.25-2.416 0-3.58-5.411-1.244-5.411-5.885 0-2.546 1.675-3.923 3.739-3.923 1.19 0 2.177.395 2.589.687-.227.61-.411 1.246-.548 1.885h-.207c-.298-.875-1.1-1.755-1.951-1.755-1.143 0-2.084.775-2.084 2.205 0 3.394 5.41 1.589 5.41 5.834 0 2.837-2.198 4.19-4.22 4.19-.936 0-2.064-.294-2.866-.848.186-.636.392-1.272.485-1.94h.184zM47.635 12.296c.298.027.593.08.915.08.302 0 .575-.053.917-.08v9.655c.801-1.621 2.065-2.572 3.693-2.572 2.656 0 3.689 1.829 3.689 5.169v7.666c-.347-.028-.62-.083-.916-.083-.323 0-.621.056-.92.083v-7.057c0-2.943-.595-4.402-2.542-4.402-2.064 0-3.003 1.488-3.003 4.24v7.219c-.341-.028-.614-.083-.917-.083-.321 0-.617.056-.915.083V12.296h-.001z"/>
    <path fill="#DF146E" d="M105.814 44.291H65.686c-1.201 0-2.182-.983-2.182-2.184V2.186c0-1.204.98-2.186 2.182-2.186h40.128c1.203 0 2.184.982 2.184 2.186v39.921c0 1.201-.981 2.184-2.184 2.184z"/>
    <path fill="#fff" d="M81.291 22.005l1.909 8.329 12.198-6.083-14.107-2.246zM84.878 8.16l-3.623 13.106L95.97 23.57 84.878 8.16zM68.945 6.24l15.22 1.818-3.597 13.03L68.945 6.238zM68.48 8.853h1.695l4.754 6.08-6.449-6.08zM96.704 23.486l-4.426-6.118 7.155-1.285-2.73 7.403zM95.63 25.932l.455-1.365-11.164 5.665 10.71-4.3zM80.577 21.951l2.326 10.48-6.915 5.622 4.589-16.102zM98.959 19.195l4.059-.07-2.931-2.986-1.128 3.056z"/>
    <path fill="#DF146E" d="M130.154 19.652v12.09h-1.458c-.036-.291-.134-.59-.3-.9-.169-.305-.409-.623-.726-.946-.556-.564-1.143-.981-1.758-1.248-.592.666-1.201 1.163-1.833 1.492-.633.327-1.282.492-1.947.492-1.596 0-3.057-.595-4.38-1.784-1.165-1.048-2.07-2.376-2.721-3.982l.886-.921c.225.689.536 1.329.929 1.92.395.59.867 1.144 1.417 1.66.625.575 1.254 1.006 1.883 1.298.633.294 1.286.437 1.961.437.914 0 1.679-.445 2.295-1.335.282-.4.499-.811.649-1.237.149-.425.223-.882.223-1.372 0-1.023-.241-1.863-.722-2.521-.544-.748-1.305-1.123-2.296-1.123-.599 0-1.093.133-1.485.4-.457.318-.687.752-.687 1.31 0 .209.047.39.141.543.099.153.224.279.377.374.153.096.331.159.532.192.197.033.402.038.611.013l-.464 1.299c-.25.073-.452.112-.61.112-.609 0-1.127-.276-1.561-.827-.424-.53-.636-1.108-.636-1.733 0-.466.102-.876.306-1.234.204-.357.509-.681.916-.962.699-.5 1.536-.747 2.509-.747 3.009 0 4.517 2.267 4.517 6.8.565.4.914.665 1.048.8.139.116.277.259.412.43.13.169.261.372.385.605V19.65h-14.051v-1.335h17.246v1.335h-1.608v.002z"/>
    <path fill="#DF146E" d="M135.657 19.652c-.848 1.215-1.272 2.217-1.272 3.008 0 .756.296 1.849.887 3.28.29.709.507 1.336.653 1.885.147.553.219 1.02.219 1.413 0 1.685-1.319 2.668-3.954 2.944l.199-1.311c1.448-.3 2.169-.914 2.169-1.848 0-.348-.075-.771-.23-1.266-.154-.495-.383-1.076-.691-1.741-.592-1.315-.886-2.305-.886-2.97 0-.826.441-1.955 1.322-3.395h-3.054v-1.335h6.424v1.335h-1.786z"/>
    <path fill="#DF146E" d="M140.437 19.652v12.092h-1.561V19.652h-1.958v-1.334h5.327v1.334h-1.808zM153.526 19.652v12.03h-1.585c0-.241.004-.534.011-.872.009-.343.023-.751.038-1.225.017-.465.028-.867.036-1.208.01-.343.015-.635.015-.875 0-2.272-.224-3.638-.676-4.094-1.006.465-2.071.979-3.199 1.54-1.128.562-2.331 1.18-3.614 1.854l-.747-1.173c.182-.368.322-.704.419-1.012.096-.307.142-.59.142-.847 0-.317-.031-.586-.093-.806-.063-.221-.164-.402-.3-.548-.139-.147-.317-.26-.537-.337-.221-.08-.491-.142-.805-.182l-.513-1.298c.566-.701 1.331-1.245 2.298-1.634.922-.383 1.861-.574 2.817-.574 1.084 0 1.968.257 2.659.773.266.202.567.5.903.9.339.399.719.898 1.143 1.496v-3.243h3.244v1.335h-1.656zm-6.14.274c-.915 0-1.954.375-3.12 1.124.508.242.885.534 1.136.886.249.348.374.744.374 1.184 0 .168-.03.369-.099.599-.066.234-.163.503-.289.81l5.069-2.431c-.218-.582-.637-1.092-1.261-1.522-.292-.215-.587-.38-.887-.487-.3-.11-.605-.163-.923-.163z"/>
</svg>
