<svg width="16" height="16" viewBox="0 0 16 16" fill="none" xmlns="http://www.w3.org/2000/svg">
<path d="M15.4191 0.769088L12.1691 0.0190879C11.816 -0.0621621 11.4535 0.122213 11.3097 0.453463L9.8097 3.95346C9.67845 4.25971 9.76595 4.61909 10.0253 4.82846L11.9191 6.37846C10.7941 8.77534 8.82845 10.7691 6.38158 11.916L4.83158 10.0222C4.61908 9.76284 4.26283 9.67534 3.95658 9.80659L0.456576 11.3066C0.122201 11.4535 -0.0621745 11.816 0.0190755 12.1691L0.769076 15.4191C0.847201 15.7566 1.1472 16.0003 1.50033 16.0003C9.50345 16.0003 16.0003 9.51596 16.0003 1.50034C16.0003 1.15034 15.7597 0.847213 15.4191 0.769088Z" fill="white"/>
</svg>
