<svg width="18" height="16" viewBox="0 0 18 16" fill="none" xmlns="http://www.w3.org/2000/svg">
<path d="M6.96899 16C6.43855 16 5.92985 15.7893 5.55477 15.4142C5.1797 15.0391 4.96899 14.5304 4.96899 14C4.96899 13.4696 5.1797 12.9609 5.55477 12.5858C5.92985 12.2107 6.43855 12 6.96899 12C7.49942 12 8.00813 12.2107 8.3832 12.5858C8.75827 12.9609 8.96899 13.4696 8.96899 14C8.96899 14.5304 8.75827 15.0391 8.3832 15.4142C8.00813 15.7893 7.49942 16 6.96899 16ZM13.969 16C13.4386 16 12.9298 15.7893 12.5548 15.4142C12.1797 15.0391 11.969 14.5304 11.969 14C11.969 13.4696 12.1797 12.9609 12.5548 12.5858C12.9298 12.2107 13.4386 12 13.969 12C14.4994 12 15.0081 12.2107 15.3832 12.5858C15.7583 12.9609 15.969 13.4696 15.969 14C15.969 14.5304 15.7583 15.0391 15.3832 15.4142C15.0081 15.7893 14.4994 16 13.969 16ZM0.930988 1.923C0.681349 1.91495 0.444629 1.81012 0.270886 1.63068C0.0971431 1.45125 0 1.21127 0 0.9615C0 0.711732 0.0971431 0.471754 0.270886 0.292317C0.444629 0.11288 0.681349 0.00805181 0.930988 0H2.08199C2.98399 0 3.76399 0.626 3.95999 1.506L5.21299 7.148C5.40899 8.028 6.18899 8.654 7.09099 8.654H14.603L16.045 2.884H6.69999C6.4527 2.87272 6.21928 2.76654 6.04827 2.58755C5.87727 2.40857 5.78184 2.17055 5.78184 1.923C5.78184 1.67545 5.87727 1.43743 6.04827 1.25845C6.21928 1.07946 6.4527 0.973284 6.69999 0.962H16.045C16.3373 0.961914 16.6258 1.02848 16.8886 1.15663C17.1513 1.28479 17.3814 1.47116 17.5613 1.70158C17.7412 1.93201 17.8662 2.20041 17.9268 2.4864C17.9874 2.77238 17.982 3.06842 17.911 3.352L16.469 9.12C16.365 9.5362 16.1249 9.90568 15.7868 10.1697C15.4487 10.4337 15.032 10.5771 14.603 10.577H7.09099C6.21578 10.5771 5.36671 10.2787 4.684 9.7311C4.00129 9.18348 3.52578 8.41938 3.33599 7.565L2.08199 1.923H0.930988Z" fill="white"/>
</svg>
