<svg xmlns="http://www.w3.org/2000/svg" width="72" height="72" fill="none" viewBox="0 0 72 72">
    <path fill="#2575FC" fill-opacity=".06" d="M48.656 44.86c-.776 0-1.406.629-1.406 1.406v9.703c0 3.877-3.154 7.031-7.031 7.031H25.036c-.777 0-1.406.629-1.407 1.405l-.002 2.796-3.356-3.356c-.217-.499-.714-.845-1.29-.845H9.844c-3.877 0-7.031-3.154-7.031-7.031V34.312c0-3.876 3.154-7.03 7.03-7.03h14.204c.776 0 1.406-.63 1.406-1.407s-.63-1.406-1.406-1.406H9.844C4.416 24.469 0 28.885 0 34.312V55.97c0 5.428 4.416 9.843 9.844 9.843h8.417l5.776 5.776c.269.27.629.412.995.412.18 0 .363-.035.537-.107.525-.217.868-.73.869-1.298l.003-4.782h13.778c5.428 0 9.843-4.416 9.843-9.844v-9.703c0-.777-.63-1.407-1.406-1.407z"/>
    <path fill="#2575FC" fill-opacity=".06" d="M51.56 0h-3.558c-11.27 0-20.44 9.169-20.44 20.44 0 11.27 9.17 20.438 20.44 20.438h3.559c1.759 0 3.5-.223 5.187-.665l5.258 5.255c.269.269.628.412.994.412.181 0 .364-.035.538-.108.526-.217.868-.73.868-1.299v-8.136c2.226-1.802 4.075-4.08 5.373-6.623 1.474-2.89 2.221-6.01 2.221-9.275C72 9.17 62.831 0 51.56 0zm10.594 34.528c-.353.266-.56.682-.56 1.124v5.428l-3.441-3.44c-.268-.267-.627-.411-.995-.411-.138 0-.277.02-.413.062-1.673.514-3.418.775-5.184.775H48c-9.719 0-17.626-7.907-17.626-17.627 0-9.72 7.907-17.627 17.627-17.627h3.559c9.72 0 17.627 7.908 17.627 17.627 0 5.587-2.564 10.723-7.034 14.09z"/>
    <path fill="#2575FC" fill-opacity=".06" d="M56.114 15.387c-.203-2.944-2.576-5.317-5.52-5.52-1.67-.114-3.262.448-4.481 1.586-1.202 1.123-1.892 2.71-1.892 4.353 0 .777.63 1.407 1.406 1.407.777 0 1.407-.63 1.407-1.407 0-.88.354-1.695.998-2.296.643-.6 1.484-.898 2.369-.837 1.55.107 2.8 1.357 2.907 2.908.108 1.566-.92 2.95-2.443 3.29-1.234.277-2.096 1.35-2.096 2.61v3.378c0 .776.63 1.406 1.406 1.406.777 0 1.406-.63 1.406-1.406v-3.266c2.834-.685 4.735-3.278 4.533-6.206zM51.17 29.427c-.262-.261-.625-.412-.995-.412s-.733.15-.994.412c-.262.262-.412.625-.412.994 0 .372.15.734.412.996.261.262.624.41.994.41s.733-.148.994-.41c.262-.263.412-.624.412-.996 0-.37-.15-.732-.412-.994zM38.672 43.594H9c-.777 0-1.406.63-1.406 1.406 0 .777.63 1.406 1.406 1.406h29.672c.777 0 1.406-.63 1.406-1.406 0-.777-.63-1.406-1.406-1.406zM39.666 51.88c-.261-.26-.624-.411-.994-.411s-.733.15-.994.412c-.262.261-.412.624-.412.994s.15.733.412.994c.261.262.624.412.994.412s.733-.15.994-.412c.262-.261.412-.623.412-.994 0-.37-.15-.733-.412-.994zM33.14 51.469H9c-.777 0-1.406.63-1.406 1.406 0 .777.63 1.406 1.406 1.406h24.14c.777 0 1.407-.63 1.407-1.406 0-.777-.63-1.406-1.406-1.406zM29.531 35.719H9c-.777 0-1.406.63-1.406 1.406 0 .777.63 1.406 1.406 1.406h20.531c.777 0 1.407-.63 1.407-1.406 0-.777-.63-1.406-1.407-1.406z"/>
</svg>
