<svg xmlns="http://www.w3.org/2000/svg" width="20" height="20" fill="none" viewBox="0 0 20 20">
    <path fill="#363636" d="M18 17.668V6.8L10 2 2 6.8v10.868h4v-2.75c0-1.06.421-2.078 1.172-2.828.75-.75 1.767-1.172 2.828-1.172 1.06 0 2.078.421 2.828 1.172.75.75 1.172 1.767 1.172 2.828v2.75h4zm-6 2v-4.75c0-.53-.21-1.04-.586-1.414-.375-.375-.884-.586-1.414-.586-.53 0-1.04.21-1.414.586-.375.375-.586.884-.586 1.414v4.75H2c-.53 0-1.04-.21-1.414-.586C.21 18.707 0 18.198 0 17.668V6.8c0-.345.09-.685.26-.985.17-.3.415-.552.711-.73l8-4.8C9.281.099 9.638 0 10 0c.363 0 .718.099 1.029.285l8 4.8c.296.178.541.43.711.73.17.3.26.64.26.985v10.868c0 .53-.21 1.04-.586 1.414-.375.375-.884.586-1.414.586h-6z"/>
</svg>
