<svg xmlns="http://www.w3.org/2000/svg" width="20" height="16" fill="none" viewBox="0 0 20 16">
    <path fill="#363636" d="M17 0H3C2.204 0 1.441.316.879.879.316 1.44 0 2.204 0 3v10c0 .796.316 1.559.879 2.121C1.44 15.684 2.204 16 3 16h14c.796 0 1.559-.316 2.121-.879.563-.562.879-1.325.879-2.121V3c0-.796-.316-1.559-.879-2.121C18.56.316 17.796 0 17 0zm-.67 2L10 6.75 3.67 2h12.66zM17 14H3c-.265 0-.52-.105-.707-.293C2.105 13.52 2 13.265 2 13V3.25L9.4 8.8c.173.13.384.2.6.2.216 0 .427-.07.6-.2L18 3.25V13c0 .265-.105.52-.293.707-.187.188-.442.293-.707.293z"/>
</svg>
