<svg xmlns="http://www.w3.org/2000/svg" width="470" height="459" fill="none" viewBox="0 0 470 459">
    <path fill="#FFBE00" d="M141.335 98.236c11.448-4.688 16.932-17.778 12.25-29.238-4.683-11.46-17.759-16.95-29.206-12.263-11.448 4.688-16.932 17.778-12.249 29.238 4.682 11.46 17.758 16.95 29.205 12.263z"/>
    <path fill="#FF3C08" fill-opacity=".07" d="M241.176 135.424H18.75S40.128 75.985 76.93 67c36.816-8.985 58.308 40.999 75.497 45.281 25.846 6.444 42.997-46.36 88.749 23.143z"/>
    <path fill="#FF3C08" d="M289.819 361.883c4.427-27.659-14.383-53.674-42.011-58.105-27.629-4.432-53.616 14.398-58.042 42.057-4.427 27.659 14.382 53.674 42.011 58.105 27.629 4.432 53.615-14.398 58.042-42.057zM402.222 246.193c-7.299 0-14.485-3.406-19.055-9.786-33.577-46.933-88-74.943-145.571-74.943s-111.994 28.023-145.571 74.943c-7.528 10.523-22.153 12.95-32.664 5.401-10.511-7.536-12.923-22.176-5.395-32.699 42.35-59.197 111.003-94.527 183.643-94.527 72.639 0 141.293 35.342 183.643 94.527 7.528 10.523 5.116 25.163-5.395 32.699-4.152 2.961-8.912 4.385-13.635 4.385z"/>
    <path fill="#FF3C08" d="M94.627 228.362h-24.54v17.653H89.08l5.548-17.653zM347.165 316.281c-8.214 0-16.186-4.333-20.464-12.022-18.014-32.344-52.15-52.423-89.092-52.423-36.028 0-69.758 19.355-88.001 50.517-6.538 11.171-20.883 14.92-32.041 8.362-11.159-6.545-14.891-20.906-8.354-32.077 26.621-45.446 75.814-73.685 128.396-73.685 53.902 0 103.716 29.306 129.995 76.481 6.296 11.311 2.247 25.583-9.052 31.886-3.618 2.008-7.528 2.961-11.387 2.961z"/>
    <path fill="#FF3C08" d="M149.101 296.24h-20.084v17.665h20.084V296.24zM366.423 298.616H346.34v17.665h20.083v-17.665zM258.111 303.141h-20.083v17.665h20.083v-17.665zM257.679 386.929h-20.083v17.665h20.083v-17.665zM421.595 228.541h-20.084v17.652h16.148l3.936-17.652z"/>
    <path fill="#C2E5FF" d="M253.033 303.14c-27.979 0-50.665 22.711-50.665 50.721 0 28.01 22.686 50.72 50.665 50.72s50.665-22.71 50.665-50.72c0-28.01-22.686-50.721-50.665-50.721zm0-98.187c-52.582 0-101.774 28.239-128.395 73.685-6.538 11.171-2.793 25.532 8.353 32.077 11.159 6.545 25.504 2.808 32.042-8.362 18.255-31.162 51.972-50.518 88-50.518 36.942 0 71.078 20.093 89.092 52.424 4.291 7.689 12.251 12.022 20.464 12.022 3.859 0 7.769-.953 11.375-2.974 11.298-6.303 15.348-20.575 9.051-31.886-26.265-47.174-76.08-76.468-129.982-76.468zm183.63 4.156c-42.349-59.197-111.003-94.527-183.643-94.527-72.639 0-141.293 35.342-183.643 94.527-7.528 10.523-5.116 25.163 5.395 32.699 10.512 7.537 25.136 5.122 32.664-5.401 33.578-46.933 88.001-74.943 145.572-74.943s111.993 28.023 145.571 74.943c4.57 6.393 11.755 9.786 19.055 9.786 4.722 0 9.483-1.424 13.609-4.385 10.537-7.536 12.949-22.176 5.42-32.699z"/>
    <path fill="#C2E5FF" d="M206.379 119.487s25.86 17.525 58.257 14.31c0 0 11.59 26.116 31.051 32.484-12.771-35.699-21.581-56.796-21.581-56.796h-39.29"/>
    <path fill="#DCFCFF" d="M253.033 379.799c14.31 0 25.91-11.613 25.91-25.938 0-14.326-11.6-25.939-25.91-25.939s-25.91 11.613-25.91 25.939c0 14.325 11.6 25.938 25.91 25.938z"/>
    <path fill="#CAEEFF" d="M69.39 210.647c42.35-59.198 111.003-94.528 183.643-94.528s141.293 35.343 183.643 94.528c2.755 3.85 4.164 8.248 4.342 12.657.114-4.905-1.27-9.887-4.342-14.195-42.35-59.197-111.003-94.527-183.643-94.527S111.74 149.924 69.39 209.109c-3.072 4.295-4.469 9.29-4.342 14.195.178-4.409 1.587-8.807 4.342-12.657z"/>
    <path fill="#CAEEFF" d="M253.033 204.953c-52.582 0-101.774 28.239-128.395 73.685-2.273 3.889-3.276 8.159-3.187 12.353.165-3.698 1.194-7.409 3.187-10.815 26.621-45.446 75.813-73.685 128.395-73.685 53.902 0 103.717 29.306 129.995 76.481 1.866 3.355 2.805 6.964 2.932 10.548.115-4.079-.799-8.248-2.932-12.086-26.278-47.187-76.093-76.481-129.995-76.481zM253.033 303.141c-27.979 0-50.665 22.71-50.665 50.72 0 .254.013.508.025.763.407-27.655 22.927-49.958 50.653-49.958 27.725 0 50.233 22.303 50.652 49.958 0-.255.025-.509.025-.763-.025-28.01-22.711-50.72-50.69-50.72z"/>
    <path fill="#FF3C08" fill-opacity=".07" d="M283.97 41.545h155.562S423.118 4.13 403.048 1.512c-21.34-2.783-29.656 34.492-51.427 34.492-16.783 0-39.836-42.231-67.651 5.54zM0 298.629h88.546s-8.835-18.44-18.103-15.06c-10.041 3.673-12.618 10.841-21.847 8.642-11.692-2.796-14.498-23.384-26.583-23.473C6.195 268.624 0 298.629 0 298.629zM470 175.863l-97.026-.699s9.508-25.862 25.592-29.662c16.085-3.8 24.362 17.881 31.712 20.245 13.266 4.257 25.022-12.709 39.722 10.116z"/>
    <path fill="#001541" d="M225.447 99.7l49.192-3.864 64.82 20.881-1.65 6.43s-34.632.407-55.502-8.502l-39.874-4.816"/>
    <path fill="#FF3C08" fill-opacity=".07" d="M336.463 123.211l6.551 1.97 5.636-18.758-10.498 11.171-1.689 5.617z"/>
    <path fill="#002774" d="M195.792 106.499s2.209 12.81 21.175 16.941c25.225 5.477 50.551-4.461 50.551-4.461s-9.623 14.831 30.036 48.928l5.433-2.719-25.948-61.358-51.592-4.143-29.655 6.812z"/>
    <path fill="url(#prefix__paint0_linear)" d="M225.447 99.7l-29.655 6.812s.546 3.126 3.377 6.786c9-4.537 26.278-13.598 26.278-13.598z" opacity=".44"/>
    <path fill="#FF3C08" fill-opacity=".07" d="M296.894 167.603l4.049 5.528 15.767-11.59-15.094 2.605-4.722 3.457z"/>
    <path fill="url(#prefix__paint1_linear)" d="M217.728 47.67s21.099 15.352 44.915 10.409l8.061-2.567 15.767 5.223s-.292 3.508-11.286-.458l-.406 3.597-4.938 3.152-5.967-2.491-1.828.66.013-.114c-6.437 1.678-29.211 5.63-55.883-12.721-.025-.013 1.028-2.211 11.552-4.69z"/>
    <path fill="#FF9500" d="M231.718 53.275l-6.728 10.828c-.838-.267-20.337-10.879-21.2-11.184l10.777-.267-.33-8.451c.61-.204 1.257-.394 1.943-.56-.013 0 6.22 5.287 15.538 9.634z"/>
    <path fill="#FFBE00" d="M225.447 99.7l-5.179-50.505s-2.298-10.84-9.103-13.649c0 0-2.577-1.105-6.537 1.246-12.365 7.345-17.215 45.522-8.849 69.72l29.668-6.812z"/>
    <path fill="#FFA200" d="M224.203 87.665l-1.93-18.784c-3.757-6.036-5.89-12.62-7.82-18.529-3.605-11.07-10.689-8.642-13.405-6.456-4.494 3.61-4.05 9.837-.369 18.695 5.523 13.23 14.612 20.766 23.524 25.074z"/>
    <path fill="#131637" d="M198.534 10.243c.647.407 1.371.763 2.184 1.042 4.722 1.64 9.927 2.25 14.802 3.38 1.739.408 3.453.89 5.166 1.399l-7.185 11.425-5.535 5.16-4.164-1.983c-13.761-6.608-5.408-20.016-5.408-20.016.026-.14.089-.267.14-.407z"/>
    <path fill="#131637" d="M220.775 15.911s6.475-.254 6.475-8.21l-3.961 1.462s3.999-3.85 0-9.163l-3.441 3.444S220.75 1.983 218.63 0l-5.091 4.512s-13.926-5.236-15.157 6.15c4.862 4.347 10.143 4.474 10.143 4.474l4.291.127 7.959.648z"/>
    <path fill="#fff" d="M223.251 28.455l-.394 3.304-4.684-.394-.635-2.567.241-1.335"/>
    <path fill="url(#prefix__paint2_linear)" d="M206.494 28.048s2.412.89 2.792-2.63c0 0-4.976-1.92-3.833-4.906.723-1.92 4.24-1.487 4.963 1.347l.178 2.974s2.082-2.631.597-6.85l1.802-2.16 4.482.063 3.313.05s2.831 5.542 2.488 12.544l-4.583.28s.952 2.554 4.177 3.024c-.216 1.348-.394 1.92-.914 3.305l-6.741.406-.178 8.02-10.384-6.698-.851-6.113c-.012-.025 1.524-.203 2.692-2.656z"/>
    <path fill="#1EE3FF" d="M275.276 100.674l19.095-24.528-1.672-1.304-19.095 24.527 1.672 1.305z"/>
    <path fill="#DEE3FF" d="M274.216 103.499l21.788-27.985-1.903-1.485-21.787 27.986 1.902 1.484z"/>
    <path fill="#F5FFFF" d="M274.093 103.474l-32.409-2.3.787-2.3 30.645 2.185.977 2.415z"/>
    <path fill="url(#prefix__paint3_linear)" d="M292.679 74.855L254.95 32.662l-18.37 50.72 37.006 16 19.093-24.528z"/>
    <path fill="url(#prefix__paint4_linear)" d="M201.06 43.883c2.463-2.478 8.391-3.152 13.216 7.447 6.08 13.344 15.411 27.248 41.524 29.828 0 0 4.355 1.004 6.589 2.402 2.234 1.385 5.839 6.278 5.839 6.278l.051.406 2.196 3.813-.596 5.617s-1.79-1.106-1.714-3.1c.038-1.03-.127-1.869-.368-2.555l-.8 1.283-5.84-1.614s.115-1.016 1.321-1.207l1.942-.038-1.828-2.008-5.789-3.61s-34.86 5.707-52.239-25.582c-4.672-8.388-7.553-13.268-3.504-17.36z"/>
    <path fill="#FFB387" d="M219.849 61.51l-8.937 8.82-1.879-2.287 10.816-6.533z" opacity=".41"/>
    <path fill="#FF9500" d="M221.309 60.608l-13.977 8.667c-1.613-2.033-3.136-4.27-4.52-6.774-4.659-8.387-5.801-14.513-1.739-18.618 2.463-2.478 9.216-5.693 14.053 4.893 1.727 3.825 3.682 7.892 6.183 11.832z"/>
    <path fill="#FFCDA9" d="M170.898 310.181s-10.893 13.306-17.329 20.258l5.103 2.465s13.622-8.247 20.591-19.075c-2.996-4.753-8.365-3.648-8.365-3.648z"/>
    <path fill="#FFCDA9" d="M154.966 328.558s-3.606.547-4.736 1.182c0 0-6.182 2.364-7.121 2.783 0 0-.178 1.551 1.713 1.398 1.879-.165 4.164-.953 4.164-.953s-1.853 2.249-3.465 3.164c-1.613.928-4.736 2.835-5.091 3.94-.355 1.106.825 1.03.825 1.03s4.799-2.949 5.84-3.572c.914-.546.876-.025.876-.025s-5.243 3.838-6.106 4.651c-.851.827-.927 1.475-.013 1.932 0 0 4.176-2.847 4.798-3.253.635-.407 2.425-2.097 2.882-1.424 0 0-4.367 3.571-5.065 4.232-.711.661-.66 1.398.317 1.538l6.259-4.6s.444-.318.533.038c.076.317-1.853 3.075-2.12 3.38-.267.305-1.003 1.309-.14 1.767 0 0 .318.114 1.029-.826.711-.941 4.519-4.817 4.519-4.817s2.59-2.631 3.834-6.545c1.244-3.94.101-5.033.965-2.91l-1.981-.852-2.716-1.258z"/>
    <path fill="#E40E64" d="M192.466 345.41h-29.185s1.383-26.777 6.766-60.354c.571-3.584 2.958-10.205 11.057-9.366 7.338.75 11.654 6.71 11.654 20.868-.013 22.558-.292 48.852-.292 48.852z"/>
    <path fill="#001DBF" d="M172.979 391.987l33.642 45.942 5.205-2.275s-2.806-28.607-23.638-47.035l-.356-28.975-17.811 15.263"/>
    <path fill="#0046FF" d="M163.281 345.41l-3.466 96.764h6.652s11.311-25.024 6.525-43.82c0 0 17.176-30.374 19.487-52.944h-29.198z"/>
    <path fill="url(#prefix__paint5_linear)" d="M163.281 345.41l28.626 4.066.559-4.066" opacity=".29"/>
    <path fill="#FFCDA9" d="M161.211 256.995s-.33 8.337 3.58 18.085c0 0 4.545 1.398 9.572-2.161l.216 5.084 7.972-2.199-.266-9.976-1.981.711-.178-3.126s2.463-1.665 1.829-4.817c-.635-3.151-3.276-.762-3.834-.012l-.102 2.287s-1.879-3.927-.178-6.202l-2.919-3.24s-5.04 4.638-13.711 5.566z"/>
    <path fill="#131C4C" d="M183.402 247.819s-1.029-5.21-6.767-5.49c1.308 3.864-.914 7.574-2.056 11.489l2.094-.648s-.863 3.545 1.346 7.714l.102-2.288s1.18-1.881 2.805-1.169c1.625.712 1.194 4.143-.8 5.986l.178 4.181 1.981-.712.076 1.767s1.917-2.034 1.612-4.219c0 0 7.731-7.219-.571-16.611z"/>
    <path fill="#131C4C" d="M176.673 253.17s-6.22 6.977-7.337 3.152c0 0-3.618 3.24-6.056.381 0 0-6.702 1.182-7.845-1.906-1.295-3.508 4.354-4.881 4.354-4.881s-5.598-3.164-4.1-5.731c1.498-2.567 9.356-.864 9.356-.864s-2.856-2.872-1.765-4.296c1.092-1.436 8.608 2.389 8.608 2.389s-3.073-1.626-1.422-2.198c1.65-.572 6.182 3.113 6.182 3.113l1.955 2.618-.584 6.977-1.346 1.246z"/>
    <path fill="#FBFFFF" d="M185.204 276.821l-1.231-5.033s-7.553.648-11.578 5.871l-.393 2.199c-.013.013 7.934-2.198 13.202-3.037z"/>
    <path fill="#fff" d="M166.15 442.174h-6.335v3.202h6.335v-3.202zM211.712 434.542l-5.254 3.542 1.787 2.657 5.254-3.542-1.787-2.657z"/>
    <path fill="#00143E" d="M166.15 445.376v6.812h-27.751l21.416-6.812h6.335zM213.476 437.192l4.748 4.982-13.698 10.014h-13.609l10.575-4.397 6.715-7.053 5.269-3.546z"/>
    <path fill="#B8D9FF" d="M126.834 307.284l-4.875-3.864c-.736-.584-.736-1.703 0-2.287l6.576-5.249c.533-.432 1.307-.419 1.841.013l14.167 11.616c.762.622.698 1.792-.102 2.338l-5.154 3.495"/>
    <path fill="#001F5E" d="M143.883 306.966l-13.203-10.828-8.861 7.079c.051.063.089.14.153.191l2.894 2.3 10.016 8.883 9.001-7.625z"/>
    <path fill="#FFCDA9" d="M138.538 315.824c-.495-.114-5.205 1.004-5.205 1.004l-4.532-5.884-2.678-1.347v-3.355l1.676 1.347 4.532-.165-3.809-2.212 1.955-1.296 3.872 1.652 5.357 4.944h27.688l8.226-18.212 11.413 4.194s-5.205 14.45-15.107 23.689c0 0-16.11-.33-33.388-4.359z"/>
    <path fill="#FF277A" d="M170.453 298.21l15.234 6.214s8.988-19.902 1.333-24.045c-7.655-4.143-16.567 17.831-16.567 17.831z"/>
    <path fill="#FF3C08" fill-opacity=".3" d="M178.019 459c21.307 0 38.58-3.107 38.58-6.939s-17.273-6.939-38.58-6.939-38.579 3.107-38.579 6.939S156.712 459 178.019 459z" opacity=".42"/>
    <path fill="#FF3C08" d="M337.009 281.904c-.216-3.775 3.758-6.634 11.946-6.57 10.13 10.891 21.924 29.09 44.914 10.599l7.972.228s-25.313 36.017-52.302 12.62c-7.846-6.812-12.162-10.624-12.53-16.877z"/>
    <path fill="#FFCDA9" d="M393.323 286.809s1.511-3.367 2.425-4.27c0 0 2.272-.826 3.415-.19 0 0 6.563-.89 5.903.902-.66 1.792-5.903-.902-5.903-.902s3.034.279 4.354-1.004c1.32-1.284 3.606-5.135 4.748-5.122 1.143.013.762 1.144.762 1.144s-4.113 3.774-4.989 4.588c-.775.711-.267.851-.267.851s5.649-3.215 6.665-3.787c1.015-.572 1.714-.229 1.904.813 0 0-3.009 1.729-4.76 2.962-.61.432-2.946 1.499-2.425 2.16 0 0 5.129-2.249 5.954-2.732.825-.483 1.612-.013 1.472.991l-6.728 3.584s-.419.343-.114.546c.279.178 3.796-.406 4.151-.559.355-.165 1.523-.572 1.714.419 0 0 .025.344-1.067.75-1.091.394-6.169 2.453-6.169 2.453s-3.212 1.703-7.274 1.665c-4.101-.038-.864-.038-3.047.013l-.267-2.212-.457-3.063z"/>
    <path fill="#D9F0FF" d="M413.33 271.038l21.988 10.142c1.244.571 1.574 2.198.635 3.202l-23.765 26.447c-.978 1.055-2.514 1.373-3.821.775l-21.226-9.582c-.698-.318-.901-1.207-.419-1.805l23.511-28.48c.749-.902 2.018-1.195 3.097-.699z"/>
    <path fill="#00B86E" d="M413.724 272.627l19.664 9.137c.66.305.825 1.157.343 1.69l-22.571 25.494c-.648.699-1.676.915-2.539.521l-19.157-8.642c-.368-.165-.482-.648-.228-.966l21.822-26.624c.647-.788 1.739-1.043 2.666-.61z"/>
    <path fill="#00F6A6" d="M397.424 298.679c-.076-2.656-.648-5.058-1.359-7.142l2.146-2.618c1.117 2.732 2.069 6.151 2.12 10.053 6.931.927 11.527 3.304 14.548 5.782L413 306.889c-3.732-3.037-10.422-5.935-21.949-5.338l-1.587-.711c-.368-.166-.482-.648-.228-.966l.964-1.182c2.615-.165 5.028-.165 7.224-.013zM407.542 277.532l1.891-2.3c3.669 2.262 9.394 4.689 16.516 4.168.051-.355.114-.673.165-1.016l2.742 1.271c-.355 2.529-.393 5.591.47 8.781l-2.247 2.529c-1.105-3.037-1.447-6.011-1.371-8.68-.622.038-1.257.115-1.854.115-7.083 0-12.669-2.542-16.312-4.868z"/>
    <path fill="#FFCDA9" d="M395.748 282.539l11.666-1.791s-.241 2.096-2.348 2.503c-2.108.407-4.773 1.296-4.773 1.296s-.927 2.606-3.453 3.444c-2.527.839-1.803-1.563-1.803-1.563l.711-3.889z"/>
    <path fill="#FF3C08" fill-opacity=".3" d="M302.632 450.752c0 3.851 18.039 6.964 40.293 6.964 22.254 0 40.281-3.113 40.281-6.964 0-3.851-18.04-6.964-40.281-6.964-22.254-.013-40.293 3.113-40.293 6.964z" opacity=".42"/>
    <path fill="#C2E5FF" d="M356.419 443.775v5.554h17.037l-11.717-5.554h-5.32zM316.938 443.775v3.99l9.991 4.588h4.494l-8.378-8.578h-6.107z"/>
    <path fill="#001F5E" d="M361.142 341.635l.609 102.14h-5.332s-8.873-24.884-7.451-49.412l-6.043-36.969-19.88 86.381h-6.043s-5.243-31.899 2.133-51.191l2.843-55.46 39.164 4.511z"/>
    <path fill="#00143E" d="M361.142 341.635s-9.102 3.101-39.506 2.186l.343-6.685 22.964-4.244M342.925 357.394l6.804-13.573-.774 50.542-6.03-36.969z"/>
    <path fill="#131637" d="M358.869 240.22c-6.233-3.165-22.393-16.916-29.223 1.334 0 0-11.184 5.007 3.313 22.52h4.215l6.081-5.02 9.051-11.667c-.012 0 6.271.776 6.563-7.167z"/>
    <path fill="#FFCDA9" d="M335.93 260.452v1.296s2.45-1.487 3.072-5.121c0 0-4.456-.915-3.694-4.169.622-2.694 4.012-1.792 5.091.534v3.101s1.739-1.512 2.043-7.447l1.765-2.453 8.074 1.207s1.841 6.024 1.041 11.425c0 0-1.155 7.232-1.79 8.642h-7.033l.571 16.128-8.518-2.822-1.764-3.863-1.841-1.843v-10.98c.012-.013 1.625-1.157 2.983-3.635z"/>
    <path fill="#131637" d="M339.599 248.023c0 1.665-.229 1.538 1.434 1.538s3.809-1.932 3.809-3.597-.584-2.415-2.235-2.415c-1.663 0-3.008 2.809-3.008 4.474z"/>
    <path fill="#0046FF" d="M321.788 342.398s21.975 4.969 39.951-.953c0 0-4.964-42.486-8.938-59.35-1.028-4.346-3.452-7.625-8.086-8.96l.127 8.274-11.895-8.274c-.343 0-3.504.699-6.538 3.597-2.742 2.618-3.643 4.384-3.91 8.172l-.711 57.494z"/>
    <path fill="#003FFB" d="M359.987 327.249c-17.405-10.548-22.369-26.727-24.501-39.893-1.587-9.836-6.868-11.031-10.029-9.595-1.587 2.122-2.742 4.347-2.946 7.142l-.152 12.48c.191.776.368 1.475.533 2.072 6.843 25.532 27.764 34.11 38.262 36.969-.317-2.414-.71-5.566-1.167-9.175z"/>
    <path fill="#FF3C08" d="M323.083 281.345c1.879-3.164 7.921-6.99 13.913 3.698 7.541 13.459 14.625 27.82 42.236 28.239l-.013 5.579s-30.581 13.166-52.239-17.652c-2.717-3.864-7.871-13.154-3.897-19.864z"/>
    <path fill="#FFCDA9" d="M377.988 314.044s2.945-2.147 4.202-2.491c0 0 6.055-2.668 7.02-3.024 0 0 1.219.991-.241 2.198-1.447 1.208-3.631 2.25-3.631 2.25s2.895.292 4.697-.191c1.79-.47 5.37-1.321 6.386-.775 1.028.534.14 1.309.14 1.309s-5.485 1.284-6.653 1.576c-1.028.254-.647.597-.647.597s6.424-.966 7.604-.978c1.181-.013 1.689.394 1.359 1.359 0 0-4.964.915-5.7 1.068-.737.152-3.2.216-3.047 1.017 0 0 5.611-.534 6.576-.56.965-.025 1.46.534.85 1.309l-7.68 1.132s-.546.089-.356.406c.166.28 3.479.877 3.885.915.394.026 1.638.229 1.346 1.157 0 0-.153.305-1.308.14-1.168-.166-6.588-.242-6.588-.242s-3.682-.051-7.313-1.957c-3.656-1.932-3.605-3.508-2.729-1.398l.812-1.995 1.016-2.822z"/>
    <path fill="#FF3C08" d="M378.877 320.234l-4.888.228 1.232-7.345 4.278.025-.622 7.092z"/>
    <defs>
        <linearGradient id="prefix__paint0_linear" x1="225.442" x2="195.786" y1="106.492" y2="106.492" gradientUnits="userSpaceOnUse">
            <stop stop-color="#0F8FCE"/>
            <stop offset=".161" stop-color="#0F83C2"/>
            <stop offset=".451" stop-color="#0F64A3"/>
            <stop offset=".834" stop-color="#0F3171"/>
            <stop offset="1" stop-color="#0F1959"/>
        </linearGradient>
        <linearGradient id="prefix__paint1_linear" x1="216.606" x2="287.646" y1="55.005" y2="65.531" gradientUnits="userSpaceOnUse">
            <stop offset=".001" stop-color="#FFB180"/>
            <stop offset=".118" stop-color="#FFB88A"/>
            <stop offset=".377" stop-color="#FFC49C"/>
            <stop offset=".658" stop-color="#FFCBA6"/>
            <stop offset="1" stop-color="#FFCDA9"/>
        </linearGradient>
        <linearGradient id="prefix__paint2_linear" x1="213.536" x2="213.536" y1="43.488" y2="15.804" gradientUnits="userSpaceOnUse">
            <stop offset=".001" stop-color="#FFB180"/>
            <stop offset=".118" stop-color="#FFB88A"/>
            <stop offset=".377" stop-color="#FFC49C"/>
            <stop offset=".658" stop-color="#FFCBA6"/>
            <stop offset="1" stop-color="#FFCDA9"/>
        </linearGradient>
        <linearGradient id="prefix__paint3_linear" x1="294.158" x2="245.742" y1="84.85" y2="58.065" gradientUnits="userSpaceOnUse">
            <stop offset=".004" stop-color="#C4FFFF"/>
            <stop offset=".118" stop-color="#A9ECFF" stop-opacity=".886"/>
            <stop offset=".431" stop-color="#64BDFF" stop-opacity=".571"/>
            <stop offset=".693" stop-color="#319AFF" stop-opacity=".308"/>
            <stop offset=".89" stop-color="#1284FF" stop-opacity=".11"/>
            <stop offset="1" stop-color="#067CFF" stop-opacity="0"/>
        </linearGradient>
        <linearGradient id="prefix__paint4_linear" x1="270.476" x2="199.13" y1="71.002" y2="71.002" gradientUnits="userSpaceOnUse">
            <stop stop-color="#FFCDA9"/>
            <stop offset=".273" stop-color="#FFCBA6"/>
            <stop offset=".497" stop-color="#FFC49C"/>
            <stop offset=".705" stop-color="#FFB88A"/>
            <stop offset=".9" stop-color="#FFA872"/>
            <stop offset="1" stop-color="#FF9D63"/>
        </linearGradient>
        <linearGradient id="prefix__paint5_linear" x1="146.491" x2="189.407" y1="347.443" y2="347.443" gradientUnits="userSpaceOnUse">
            <stop stop-color="#0BF"/>
            <stop offset=".148" stop-color="#00B3F9"/>
            <stop offset=".384" stop-color="#009CE8"/>
            <stop offset=".678" stop-color="#0076CC"/>
            <stop offset="1" stop-color="#0045A8"/>
        </linearGradient>
    </defs>
</svg>
