<svg width="20" height="20" viewBox="0 0 20 20" fill="none" xmlns="http://www.w3.org/2000/svg">
<path d="M16.8329 19.1276L19.4926 16.4651C19.8175 16.1401 20 15.7051 20 15.2451C20 14.7851 19.82 14.3501 19.4926 14.0251L16.6304 11.1575C16.3055 10.8325 15.868 10.65 15.4081 10.65C14.9456 10.65 14.5132 10.83 14.1857 11.1575L11.9435 13.3976C10.7547 12.8873 9.67455 12.1541 8.7614 11.2375C7.83902 10.32 7.11161 9.24754 6.59667 8.05753L8.83889 5.81752C9.16385 5.49252 9.34633 5.05752 9.34633 4.59752C9.34717 4.37063 9.30272 4.14585 9.21559 3.93636C9.12845 3.72686 9.00039 3.53687 8.83889 3.37751L5.97675 0.507502C5.65179 0.1825 5.21435 -6.46301e-07 4.7544 -6.66406e-07C4.29196 -6.8662e-07 3.85952 0.18 3.53206 0.507502L0.872389 3.16751C0.317459 3.72252 -1.96156e-07 4.48752 -2.30469e-07 5.27252C-2.37572e-07 5.43502 0.0124967 5.59252 0.039993 5.75252C0.584926 9.06254 2.34721 12.3476 4.99687 15.0001C7.65154 17.6501 10.9361 19.4101 14.2482 19.9601C15.1881 20.1176 16.1555 19.8026 16.8329 19.1276ZM14.5457 18.1876C11.5985 17.7001 8.65892 16.1151 6.27171 13.7276C3.88451 11.34 2.29971 8.40254 1.81227 5.45502C1.74978 5.08502 1.87476 4.70502 2.14223 4.43502L4.7544 1.82251L7.52656 4.59252L4.52693 7.58753L4.50444 7.61003L4.70441 8.15003C5.30632 9.78736 6.25702 11.2742 7.49061 12.5075C8.72421 13.7409 10.2112 14.6912 11.8485 15.2926L12.3885 15.4926L15.4056 12.4726L18.1777 15.2426L15.5656 17.8551C15.2956 18.1251 14.9156 18.2501 14.5457 18.1876Z" fill="#363636"/>
</svg>
