<svg xmlns="http://www.w3.org/2000/svg" width="76" height="48" fill="none" viewBox="0 0 76 48">
    <g fill="#8C3494" clip-path="url(#prefix__clip0)">
        <path fill-rule="evenodd" d="M56.483 6.226L45.254 17.49l.788 6.324 2.069-4.346 6.402 8.2L63.476 0 33.627 12.45l8.078 4.248L56.484 6.226z" clip-rule="evenodd"/>
        <path d="M46.729 25.989H34.908c-9.014 1.383-9.95 14.525-.098 16.304h11.921V30.436c3.973.133 4.794 5.104 1.872 6.916.59.693 2.954 3.26 2.954 3.26 6.205-5.368 2.66-14.197-4.828-14.623zm-4.33 11.857h-6.6c-4.089.246-5.42-6.522-.396-7.41h6.995v7.41z"/>
        <path fill-rule="evenodd" d="M71.457 31.916H67.12l-1.871 4.35h5.516c1.109-.051 1.159 1.58 0 1.678h-9.554v-7.509H75.89V25.99h-2.167c-.64-9.19-11.598-9.461-14.48-4.447.565.469 3.25 2.866 3.25 2.866 1.648-2.595 6.23-2.47 6.895 1.58H56.876v16.305h14.088c3.202-.05 4.678-2.422 5.023-4.447.198-3.262-1.773-5.435-4.53-5.93zM29.294 25.989H23.58c-1.822 2.223-4.974 11.215 1.28 17.983 0 0 2.71-2.321 3.25-2.765-1.921-1.88-5.12-9.537 1.184-15.218zM14.75 44.128c0 1.982-1.603 3.591-3.58 3.591-1.978 0-3.58-1.609-3.58-3.591 0-1.985 1.604-3.594 3.58-3.594 1.977.003 3.58 1.611 3.58 3.594z" clip-rule="evenodd"/>
        <path fill-rule="evenodd" d="M7.128 25.989c-9.014 1.383-9.95 14.525-.098 16.304h.065c.7-1.558 2.26-2.642 4.073-2.642 1.814 0 3.373 1.084 4.073 2.642h3.708V25.99H7.128zm7.488 11.857h-6.6c-4.088.246-5.42-6.522-.393-7.41h6.995v7.41h-.002zM11.366 22.134c1.45-.246 2.166-3.237-.198-3.902H7.325v5.681h1.577v-1.779l1.773 1.78h2.465l-1.774-1.78zm-.188-2.007c0 .205-.167.374-.373.374H8.922v-.79h1.883c.206 0 .373.167.373.373v.043z" clip-rule="evenodd"/>
        <path fill-rule="evenodd" d="M15.882 18.142c-1.587 0-2.87 1.29-2.87 2.878 0 1.591 1.286 2.878 2.87 2.878 1.586 0 2.87-1.29 2.87-2.878.002-1.588-1.284-2.878-2.87-2.878zm0 4.143c-.696 0-1.261-.567-1.261-1.265s.565-1.265 1.26-1.265c.696 0 1.261.567 1.261 1.265.003.7-.563 1.265-1.26 1.265zM32.166 19.778h2.58v-1.67H32.56c-1.716 0-3.12 1.3-3.12 2.89 0 1.588 1.404 2.888 3.12 2.888h2.184v-1.669h-2.58c-.377 0-.715-.18-.932-.462h3.512V20.24h-3.512c.217-.282.555-.462.933-.462zM21.911 22.215c-.65 0-1.183-.535-1.183-1.187v-.066c0-.652.533-1.187 1.183-1.187h2.452v-1.669h-2.2c-1.715 0-3.12 1.3-3.12 2.889 0 1.588 1.405 2.888 3.12 2.888h2.2v-1.668H21.91zM40.737 18.22h-5.559v1.492h2.034v4.083h1.489v-4.083h2.036V18.22z" clip-rule="evenodd"/>
        <path d="M27.503 20.985l2.737-2.766h-2.214l-1.54 1.556V18.22h-1.488v5.576h1.489v-1.598l1.581 1.598h2.214l-2.78-2.81zM49.891 45.057c-.245.05-.463.203-.648.464-.18.248-.27.5-.27.753 0 .153.032.3.095.444.08.183.188.273.325.273.07 0 .16-.037.27-.112l.156.414c-.14.085-.276.125-.408.125-.18 0-.35-.065-.518-.2-.095-.078-.188-.227-.273-.445-.042-.108-.065-.268-.065-.484v-.15c0-.34.18-.719.538-1.143.075-.087.203-.21.383-.371h.56v.412c-.052.012-.1.017-.145.02z"/>
        <path d="M52.38 45.044v2.346h-.467v-.303c0-.106-.08-.239-.238-.402-.12-.123-.245-.23-.375-.324-.145-.1-.303-.15-.476-.15-.175 0-.302.075-.38.226-.01.017-.015.038-.015.063 0 .062.03.117.093.168.06.05.122.075.185.075.05 0 .167-.038.355-.11l.138.426c-.208.108-.383.16-.523.16-.155 0-.298-.042-.428-.13-.13-.087-.223-.203-.283-.346-.027-.063-.04-.138-.04-.228 0-.266.11-.47.328-.608.153-.1.315-.15.488-.15h.045c-.003-.083-.048-.173-.13-.276-.083-.103-.165-.153-.243-.153h-.518v-.289h-.208v-.412h3.013v.412h-.32v.005zm-.467 0h-1.101c.31.203.473.467.485.793.198.078.403.233.616.464v-1.257z"/>
        <path d="M53.291 45.044v2.346h-.468v-2.346h-.345v-.412h1.126v.412h-.313z"/>
        <path d="M55.548 45.044h-2.11v-.412h2.918v.412h-.323v2.346h-.413c-.04-.12-.242-.306-.608-.56-.15-.102-.355-.203-.618-.3-.28-.103-.5-.156-.668-.156l-.125-.467c.11-.088.41-.238.906-.451.21-.096.558-.231 1.04-.412zm.027.507c-.087.03-.18.063-.28.103-.148.065-.413.183-.8.351l-.09.04c.37.13.722.321 1.06.575l.11.083V45.55z"/>
        <path d="M56.946 45.044v2.346h-.468v-2.346h-.345v-.412h1.126v.412h-.313z"/>
        <path d="M57.094 45.044v-.412h1.38c.003-.015.006-.027.006-.035 0-.216-.1-.356-.303-.424-.027-.008-.057-.01-.09-.01-.05 0-.11.01-.185.03-.1.028-.16.04-.178.045-.08.013-.15.038-.207.075-.078.053-.166.1-.263.144l-.15-.35c.177-.122.415-.23.705-.318.123-.035.238-.053.348-.053.115 0 .248.043.393.126.248.15.378.406.388.77h.267v.412h-2.111zm1.626 2.74c-.19-.173-.39-.331-.605-.482-.103-.07-.273-.15-.513-.238-.19-.068-.3-.103-.333-.103l.005-.55c.04 0 .1.003.18.008.08.005.143.008.183.008.212 0 .385-.028.517-.083.253-.106.378-.231.378-.377 0-.105-.047-.193-.145-.263-.092-.055-.188-.108-.282-.158-.028-.013-.053-.02-.08-.02-.058 0-.118.015-.186.042-.082.038-.12.083-.115.13.018.124.145.174.383.154l-.253.389c-.102.007-.207-.025-.312-.098-.193-.13-.288-.289-.288-.477s.097-.334.293-.439c.16-.088.342-.13.547-.13.09 0 .168.015.23.042.066.03.13.063.198.098.318.163.478.41.478.74 0 .236-.097.43-.293.575-.15.11-.362.19-.64.238.083.04.203.106.358.199.265.2.478.381.64.54l-.345.255z"/>
        <path d="M62.005 45.044v2.346h-.468v-.93c0-.081-.035-.164-.105-.252-.07-.085-.145-.128-.223-.128-.072 0-.142.045-.207.136-.065.09-.1.193-.1.308h-.506c0-.13-.032-.24-.1-.336-.067-.095-.142-.14-.23-.14-.073 0-.143.025-.21.077-.068.053-.103.113-.11.181l-.015.123v.048c0 .24.147.361.44.361.045 0 .125-.01.238-.03l-.165.474c-.096.01-.155.018-.175.018-.22 0-.42-.08-.606-.243-.072-.063-.133-.156-.18-.284-.043-.113-.065-.224-.065-.331 0-.254.077-.46.232-.618.156-.158.36-.236.613-.236.236 0 .433.113.593.337.173-.226.358-.337.558-.337.11 0 .215.05.318.151v-.693h-2.53v-.411h3.263v.411h-.26v-.002zM65.515 45.044h-2.109v-.412h2.917v.412h-.325v2.346h-.413c-.04-.12-.243-.306-.608-.56-.15-.102-.355-.203-.618-.3-.28-.103-.5-.156-.668-.156l-.125-.467c.11-.088.41-.238.906-.451.212-.096.56-.231 1.043-.412zm.028.507c-.088.03-.18.063-.28.103-.148.065-.413.183-.801.351l-.09.04c.37.13.723.321 1.06.575l.11.083V45.55z"/>
        <path d="M67.109 45.044c-.148.206-.223.374-.223.51 0 .062.075.308.228.742.077.218.117.4.117.542 0 .274-.152.465-.458.572-.092.036-.257.066-.498.088l.063-.406c.275-.058.415-.156.415-.294 0-.128-.057-.324-.172-.587-.115-.264-.173-.457-.173-.582 0-.16.068-.357.2-.588h-.488v-.411h1.306v.411h-.317v.003z"/>
        <path d="M68.11 45.044v2.346h-.468v-2.346h-.343v-.412h1.126v.412h-.316zM69.19 46.156c-.22 0-.395-.07-.528-.209-.132-.138-.197-.316-.197-.534 0-.201.067-.37.202-.505s.305-.203.508-.203c.275 0 .473.138.596.414.052.118.08.233.08.346 0 .211-.058.38-.173.502-.113.126-.275.189-.488.189zm.513 1.51c-.593-.502-.996-.8-1.208-.903l.005-.65c.815.585 1.348 1.051 1.6 1.4v.482l-.397-.329zm-.415-2.466c-.048-.033-.093-.046-.14-.04-.178.03-.266.117-.266.263 0 .075.03.143.088.208.058.063.125.096.198.096l.065-.01c.132-.043.2-.123.2-.244 0-.113-.048-.206-.145-.273zM73.043 44.356c-.546-.344-.99-.517-1.339-.517-.41 0-.71.13-.903.392-.065.09-.102.223-.11.399h.328v.411h-.328v2.347h-.475V45.04h-.313v-.411h.313c.01-.334.12-.605.328-.81.207-.21.492-.337.85-.385.038-.002.105-.012.208-.025h.1c.285 0 .568.063.85.186.153.07.403.213.751.429l-.26.331z"/>
        <path d="M72.655 45.044v.015c.195.01.4.073.61.186.298.163.448.384.448.665 0 .163-.05.303-.15.424-.1.118-.23.198-.39.236-.16.037-.298.042-.41.017v-.444c.052.008.102.01.147.01.235 0 .353-.085.353-.253 0-.201-.203-.33-.608-.382v1.872h-.413c-.067-.13-.132-.23-.2-.3-.022-.026-.082-.104-.18-.234-.03-.043-.085-.096-.165-.16-.08-.066-.135-.119-.165-.161-.013-.02-.05-.04-.11-.063-.203-.07-.368-.108-.493-.108l-.125-.467c.102-.075.335-.213.698-.419.027-.02.137-.085.33-.196.07-.042.188-.11.35-.203v-.035h-1.478v-.412h3.212v.412h-1.261zm-.47.542c-.075.058-.193.136-.348.233-.04.018-.085.05-.138.1-.052.05-.1.099-.147.139.05.045.13.108.24.19.102.118.235.262.393.435v-1.097zM74.62 46.156c-.221 0-.396-.07-.529-.209-.132-.138-.2-.316-.2-.534 0-.201.068-.37.203-.505s.305-.203.508-.203c.275 0 .472.138.595.414.053.118.08.233.08.346 0 .211-.057.38-.172.502-.11.126-.273.189-.486.189zm.51 1.51c-.593-.502-.996-.8-1.209-.903l.005-.65c.816.585 1.349 1.051 1.601 1.4v.482l-.398-.329zm-.413-2.466c-.048-.033-.093-.046-.14-.04-.178.03-.266.117-.266.263 0 .075.03.143.088.208.058.063.125.096.198.096l.065-.01c.132-.043.2-.123.2-.244 0-.113-.05-.206-.145-.273zM22.894 47.59l.873.297.348-.296-.873-.306-.348.306zM23.184 45.164v-.53H16.34v.53h1.151v1.182h.988s.28-.09.348-.233v.467c0 .208-.155.389-.348.389h-1.453c-.088 0-.175-.04-.175-.39v-1.101h-.51v1.413c0 .115.072.53.44.53h1.969c.307-.01.525-.324.543-.588v-1.355h-.466c-.047.208-.02.349-.233.401h-.58v-.715H19.7v2.256h.58v-2.256h.409v2.256h1.918c.135 0 .58-.113.58-.607v-1.335h-.465c0 .13-.02.324-.232.324H21.21v-.638h1.974zm-.755 1.105c.087.025.202-.116.29-.234v.545c0 .208-.165.389-.29.389h-1.221v-.7h1.22zM24.988 45.802h-1.163v.622h1.163v-.622zM25.629 44.635v.53h1.913v.313H25.63v1.257c.042.41.25.685.648.685h1.73v-2.256h.409v2.256h.523v-2.785h-3.31zm1.913 2.411H26.38c-.175-.025-.29-.233-.29-.466v-.623h1.454v1.09zM31.448 45.164h2.371v.314h-.698c-.03.22-.387.339-.465 0h-1.208v1.335c0 .13.02.555.375.607h.95v-.451h-.637c-.125-.04-.233-.116-.233-.312v-.7h.64v.39h.581v-.312c-.04-.143.61-.13.64 0v1.385h.523v-2.256h.348v2.256h.523v-2.785h-3.71v.53zM30.622 44.79h-1.236v.73c.048.234.173.523.596.545h.988v-.9c-.028-.154-.133-.35-.348-.374zm-.375.781c-.223 0-.403-.083-.403-.183 0-.1.18-.183.403-.183.223 0 .403.082.403.183 0 .1-.18.183-.403.183zM29.471 46.341v.46l1.491.62v-.487l-1.49-.593zM43.144 44.79h-1.236v.73c.047.234.173.523.595.545h.989v-.9c-.028-.154-.136-.35-.348-.374zm-.375.781c-.223 0-.403-.083-.403-.183 0-.1.18-.183.403-.183.222 0 .402.082.402.183 0 .1-.18.183-.402.183zM41.99 46.341v.46l1.494.62v-.487l-1.494-.593zM46.313 45.478v-.314h.964v-.53h-3.343v.53h1.914v.314h-1.914v1.257c.043.41.25.685.648.685h1.731v-1.385h.466c.077 0 .097-.04.115.078v.233c-.03.116-.04.196-.115.234h-.17v.466h.345c.115-.012.33-.143.348-.31v-1.258h-.989zm-.465 1.568h-1.16c-.176-.025-.29-.233-.29-.466v-.623h1.443l.007.078v1.011zM36.722 44.635v.53h1.914v.313h-1.914v1.257c.042.41.25.685.648.685h1.73v-2.256h.606l-.22.442v.311h.408c.215.025.29.168.29.545 0 .258-.06.446-.26.466h-.38v.467h.408c.115 0 .648.053.698-.467.057-1.051.107-1.322-.64-1.4l.11-.364h.817v2.256h.523v-2.785h-4.738zm1.914 2.411h-1.164c-.175-.025-.29-.233-.29-.466v-.623h1.454v1.09z"/>
    </g>
    <defs>
        <clipPath id="prefix__clip0">
            <path fill="#fff" d="M0 0H76V48H0z"/>
        </clipPath>
    </defs>
</svg>
