<svg xmlns="http://www.w3.org/2000/svg" width="162" height="162" fill="none" viewBox="0 0 162 162">
    <g fill="#fff" fill-opacity=".2" clip-path="url(#prefix__clip0)">
        <path d="M104.625 108h-47.25c-9.301 0-16.875-7.567-16.875-16.875S48.074 74.25 57.375 74.25h47.25c9.301 0 16.875 7.567 16.875 16.875S113.926 108 104.625 108zm-47.25-27c-5.582 0-10.125 4.543-10.125 10.125s4.543 10.125 10.125 10.125h47.25c5.582 0 10.125-4.543 10.125-10.125S110.207 81 104.625 81h-47.25z"/>
        <path d="M104.625 81h-47.25C48.074 81 40.5 73.433 40.5 64.125S48.074 47.25 57.375 47.25h47.25c9.301 0 16.875 7.567 16.875 16.875S113.926 81 104.625 81zm-47.25-27c-5.582 0-10.125 4.543-10.125 10.125S51.793 74.25 57.375 74.25h47.25c5.582 0 10.125-4.543 10.125-10.125S110.207 54 104.625 54h-47.25z"/>
        <path d="M64.125 67.5h-6.75C55.512 67.5 54 65.988 54 64.125s1.512-3.375 3.375-3.375h6.75c1.863 0 3.375 1.512 3.375 3.375S65.988 67.5 64.125 67.5zM64.125 94.5h-6.75C55.512 94.5 54 92.988 54 91.125s1.512-3.375 3.375-3.375h6.75c1.863 0 3.375 1.512 3.375 3.375S65.988 94.5 64.125 94.5zM84.375 67.5h-6.75c-1.863 0-3.375-1.512-3.375-3.375s1.512-3.375 3.375-3.375h6.75c1.863 0 3.375 1.512 3.375 3.375S86.238 67.5 84.375 67.5zM84.375 94.5h-6.75c-1.863 0-3.375-1.512-3.375-3.375s1.512-3.375 3.375-3.375h6.75c1.863 0 3.375 1.512 3.375 3.375S86.238 94.5 84.375 94.5zM81 148.5c-1.863 0-3.375-1.512-3.375-3.375s1.512-3.375 3.375-3.375c37.219 0 67.5-30.281 67.5-67.5 0-1.863 1.512-3.375 3.375-3.375s3.375 1.512 3.375 3.375c0 40.939-33.311 74.25-74.25 74.25zM147.892 54.337c-1.397 0-2.706-.877-3.192-2.268C135.317 24.961 109.714 6.75 81 6.75c-15.363 0-29.754 5.042-41.627 14.573-1.452 1.161-3.585.939-4.746-.513-1.167-1.458-.931-3.577.52-4.745C48.23 5.555 64.084 0 81 0c31.59 0 59.758 20.04 70.085 49.855.608 1.769-.324 3.686-2.086 4.3-.364.122-.742.182-1.107.182zM57.375 144.383c-.371 0-.75-.061-1.12-.189C26.648 133.812 6.75 105.705 6.75 74.25c0-14.985 4.455-29.37 12.879-41.6 1.06-1.546 3.152-1.917 4.691-.871 1.54 1.06 1.924 3.159.864 4.691C17.544 47.58 13.5 60.642 13.5 74.25c0 28.593 18.083 54.142 44.995 63.572 1.756.614 2.68 2.538 2.066 4.299-.486 1.391-1.789 2.262-3.186 2.262z"/>
        <path d="M91.125 162c-.864 0-1.728-.331-2.39-.986l-13.5-13.499c-1.316-1.317-1.316-3.456 0-4.773l13.5-13.5c1.317-1.316 3.457-1.316 4.773 0 1.316 1.317 1.316 3.456 0 4.773l-11.11 11.11 11.11 11.111c1.316 1.316 1.316 3.456 0 4.772-.655.661-1.519.992-2.383.992zM28.174 54c-1.491 0-2.855-.992-3.26-2.498l-4.367-16.3-16.301 4.367C2.45 40.02.594 38.98.115 37.178c-.48-1.802.587-3.645 2.39-4.131l19.56-5.238c1.803-.452 3.652.587 4.132 2.383l5.238 19.555c.486 1.809-.588 3.651-2.383 4.137-.297.075-.587.115-.878.115zM148.5 58.036c-.574 0-1.154-.141-1.688-.452L129.276 47.46c-1.613-.931-2.167-2.99-1.235-4.61.931-1.613 2.99-2.173 4.61-1.235l14.614 8.437 8.437-14.614c.932-1.613 2.99-2.173 4.61-1.235 1.614.932 2.167 2.99 1.236 4.61L151.423 56.35c-.628 1.08-1.762 1.688-2.923 1.688z"/>
    </g>
    <defs>
        <clipPath id="prefix__clip0">
            <path fill="#fff" d="M0 0H162V162H0z"/>
        </clipPath>
    </defs>
</svg>
