<svg xmlns="http://www.w3.org/2000/svg" width="305" height="305" fill="none" viewBox="0 0 305 305">
    <g fill="#EF4023" fill-opacity=".05" clip-path="url(#prefix__clip0)">
        <path d="M229.941 152.5c0-43.124-35.08-77.441-77.441-77.441-43.051 0-77.441 34.973-77.441 77.441 0 42.701 34.739 77.441 77.441 77.441 42.745 0 77.441-34.655 77.441-77.441zm-120.976-48.953c5.374 2.485 11.752 2.578 17.54 2.652 3.178.041 8.455.109 9.732 1.017.621 1.825-2.052 4.866-5.34 8.355-3.706 3.932-7.906 8.389-6.987 14.049 1.011 6.263 6.123 8.814 9.177 10.339.874.436 2.305 1.15 2.718 1.576-.112 2.037-2.874 7.482-6.545 13.188-6.62-7.189-18.598-18.758-30.311-22.755-2.486-.847-5.165-1.429-8.065-1.768 3.698-10.188 9.93-19.39 18.081-26.653zM86.973 152.5c0-3.569.295-7.126.866-10.627 2.732.195 5.139.648 7.265 1.372 10.288 3.511 22.729 16.291 28.387 22.904-.715 5.156-1.769 16.004.599 23.818 1.832 6.056 10.096 18.023 16.719 27.014-30.574-5.528-53.836-32.339-53.836-64.481zm61.136 45.381c-.759 1.836-1.196 4.243-1.408 6.913-5.691-8.017-10.281-15.216-11.208-18.279-1.082-3.571-1.08-8.822-.757-13.336 15.602 7.245 13.93 7.383 20.156 10.947 3.844 2.2 4.59 2.877 4.675 3.917-.506.395-1.642.982-2.43 1.389-2.968 1.536-7.033 3.638-9.028 8.449zm10.788 19.834c-.655-7.162-.601-13.292.22-15.277.325-.784 1.936-1.617 3.492-2.422 3.322-1.718 8.882-4.593 8.882-11.774 0-8.343-6.173-11.876-10.682-14.456-5.876-3.363-5.051-4.055-22.033-11.867 3.849-5.862 9.882-15.641 8.81-22.288-1.016-6.259-6.126-8.809-9.179-10.332-.739-.369-1.88-.938-2.461-1.362.714-1.109 2.423-2.923 3.621-4.195 4.54-4.816 11.401-12.097 7.641-21.18-3.338-8.055-12.483-8.172-20.55-8.276-1.344-.018-2.733-.036-4.103-.09 9.185-4.743 19.348-7.223 29.945-7.223 13.577 0 26.715 4.237 37.652 11.914h-.796c-.126 0-.252.004-.378.012-4.909.311-29.401 2.638-29.401 17.859 0 4.913 2.498 8.751 7.033 10.808 2.968 1.346 6.387 1.765 9.694 2.17 2.714.333 7.257.89 7.986 2.07.933 1.509.548 3.214-.626 7.032-1.368 4.446-3.241 10.536.626 16.796 3.812 6.164 10.133 7.579 15.212 8.715 3.825.856 7.128 1.595 9.183 3.963.631.729 2.246 3.027 4.418 9.143-9.306 22.651-30.042 37.951-54.206 40.26zm58.651-57.358c-4.614-5.205-10.613-6.554-15.444-7.635-4.156-.93-6.561-1.544-7.68-3.353-.932-1.509-.547-3.213.627-7.03 1.368-4.449 3.242-10.542-.627-16.798-3.735-6.045-10.908-6.925-16.672-7.631-1.948-.239-5.099-.625-6.26-1.198.135-1.841 8.331-5.239 18.064-5.911h13.482c9.683 11.714 14.989 26.418 14.989 41.699 0 2.643-.169 5.262-.479 7.857z"/>
        <path d="M281.475 78.036c-5.942-10.284-18.354-14.455-29.07-10.37-21.127-25.22-48.519-42.302-76.385-47.652C174.188 8.682 164.34 0 152.5 0s-21.688 8.682-23.519 20.014c-27.866 5.35-55.258 22.432-76.386 47.651-10.537-4.017-23.037-.071-29.071 10.373-5.909 10.24-3.329 23.085 5.545 30.348-5.055 14.132-7.624 28.947-7.624 44.114 0 15.167 2.568 29.98 7.623 44.112-8.871 7.255-11.455 20.107-5.543 30.353 5.9 10.212 18.254 14.482 29.065 10.364 21.128 25.223 48.522 42.307 76.391 47.657C130.812 296.317 140.66 305 152.5 305c11.839 0 21.686-8.681 23.518-20.011 5.997-1.145 11.992-2.818 17.883-5.009 3.083-1.147 4.653-4.577 3.506-7.66-1.148-3.084-4.577-4.653-7.661-3.507-4.9 1.824-9.873 3.246-14.844 4.258-3.339-9.193-12.188-15.727-22.402-15.727-10.213 0-19.062 6.533-22.401 15.725-24.54-5.019-48.75-20.251-67.747-42.639 6.308-7.493 7.554-18.444 2.447-27.298-5.113-8.848-15.206-13.243-24.869-11.521-4.361-12.544-6.57-25.674-6.57-39.111 0-13.434 2.208-26.562 6.568-39.104 9.69 1.731 19.771-2.702 24.874-11.533 5.105-8.85 3.859-19.8-2.45-27.293C81.35 52.18 105.56 36.95 130.1 31.93c3.339 9.193 12.188 15.726 22.401 15.726s19.062-6.533 22.401-15.725c24.539 5.019 48.749 20.25 67.746 42.64-6.308 7.493-7.554 18.443-2.447 27.297 5.056 8.748 15.077 13.265 24.869 11.521 4.362 12.543 6.572 25.674 6.572 39.111 0 13.434-2.209 26.562-6.569 39.104-9.645-1.723-19.753 2.673-24.874 11.533-5.105 8.851-3.859 19.801 2.45 27.294-3.2 3.767-6.586 7.378-10.113 10.774-2.37 2.283-2.44 6.053-.158 8.423 2.282 2.369 6.053 2.441 8.424.159 4.064-3.915 7.954-8.092 11.612-12.456 10.948 4.171 23.234-.279 29.063-10.369 5.908-10.239 3.329-23.084-5.546-30.347 5.056-14.133 7.625-28.948 7.625-44.115 0-15.167-2.568-29.98-7.623-44.112 8.871-7.255 11.455-20.107 5.543-30.352zM152.5 269.258c6.531 0 11.914 5.32 11.914 11.914 0 6.569-5.345 11.914-11.914 11.914s-11.914-5.345-11.914-11.914c0-6.586 5.376-11.914 11.914-11.914zM38.188 204.74c5.904-3.387 13.11-1.159 16.294 4.349 3.174 5.504 1.505 12.866-4.368 16.279-5.698 3.293-12.978 1.339-16.27-4.362-3.284-5.69-1.329-12.991 4.344-16.266zM54.484 95.906c-3.207 5.55-10.43 7.718-16.282 4.363-5.687-3.284-7.642-10.585-4.36-16.273 3.303-5.719 10.592-7.646 16.263-4.368 5.827 3.376 7.584 10.724 4.38 16.278zM152.5 35.742c-6.531 0-11.914-5.32-11.914-11.914 0-6.57 5.345-11.914 11.914-11.914s11.914 5.345 11.914 11.914c0 6.586-5.376 11.914-11.914 11.914zm118.658 185.263c-3.321 5.75-10.912 7.93-17.026 3.896-5.132-3.488-6.72-10.426-3.616-15.807 3.206-5.548 10.429-7.718 16.282-4.362 5.687 3.283 7.642 10.584 4.36 16.273zm-4.346-120.745c-5.873 3.37-13.092 1.19-16.294-4.35-3.106-5.384-1.518-12.323 3.614-15.81 6.128-4.044 13.713-1.84 17.025 3.894 3.283 5.69 1.328 12.99-4.345 16.266z"/>
        <path d="M215.645 268.066c3.29 0 5.957-2.667 5.957-5.957s-2.667-5.957-5.957-5.957-5.957 2.667-5.957 5.957 2.667 5.957 5.957 5.957z"/>
    </g>
    <defs>
        <clipPath id="prefix__clip0">
            <path fill="#fff" d="M0 0H305V305H0z"/>
        </clipPath>
    </defs>
</svg>
